<svg width="512" height="512" viewBox="0 0 512 512" fill="none" xmlns="http://www.w3.org/2000/svg">
  <rect width="512" height="512" rx="120" fill="#031320"/>
  <rect x="40" y="40" width="432" height="432" rx="92" fill="url(#paint0_linear)" fill-opacity="0.12" stroke="#36F7D7" stroke-opacity="0.3" stroke-width="4"/>
  <path d="M165.333 149.333H261.333C323.189 149.333 373.333 199.478 373.333 261.333V357.333H250.667C191.758 357.333 144 309.576 144 250.667V170.667C144 158.885 153.551 149.333 165.333 149.333Z" fill="url(#paint1_linear)"/>
  <path d="M221.333 213.333H285.333V248H320V312H285.333V346.667H221.333V312H186.667V248H221.333V213.333Z" fill="#031320"/>
  <path d="M353.333 138.667L380 165.333L332 213.333L305.333 186.667L353.333 138.667Z" fill="#94FFF1"/>
  <defs>
    <linearGradient id="paint0_linear" x1="64" y1="48" x2="448" y2="464" gradientUnits="userSpaceOnUse">
      <stop stop-color="#36F7D7"/>
      <stop offset="1" stop-color="#36C6FF"/>
    </linearGradient>
    <linearGradient id="paint1_linear" x1="144" y1="149.333" x2="373.333" y2="357.333" gradientUnits="userSpaceOnUse">
      <stop stop-color="#36F7D7"/>
      <stop offset="1" stop-color="#36C6FF"/>
    </linearGradient>
  </defs>
</svg>

